<?xml version="1.0" encoding="UTF-8"?>
<svg width="241px" height="22px" viewBox="0 0 241 22" version="1.1" xmlns="http://www.w3.org/2000/svg" xmlns:xlink="http://www.w3.org/1999/xlink">
    <title>logo</title>
    <g id="Symbols" stroke="none" stroke-width="1" fill="none" fill-rule="evenodd">
        <g id="Header" transform="translate(-275.000000, -20.000000)" fill-rule="nonzero">
            <g id="logo" transform="translate(275.000000, 20.000000)">
                <g id="Group">
                    <path d="M128.541603,2.19470555 C128.900002,2.56571221 129.078805,3.04846472 129.078805,3.6421798 C129.078805,4.23615598 128.896309,4.72204155 128.532108,5.09957542 C128.166853,5.47737037 127.709557,5.66561513 127.161014,5.66561513 C126.61168,5.66561513 126.156758,5.479198 125.798095,5.10610263 C125.440223,4.73274618 125.261419,4.2447719 125.261419,3.6421798 C125.261419,3.05681954 125.442333,2.57641683 125.80548,2.20123276 C126.168098,1.82526543 126.621173,1.63806503 127.166816,1.63806503 C127.725117,1.63806503 128.183203,1.8236989 128.541603,2.19470555 Z M124.714458,0.943830888 C123.913269,1.66574039 123.512938,2.56701766 123.512938,3.6489681 C123.512938,4.65833597 123.867645,5.51627255 124.576796,6.22303893 C125.285155,6.92928313 126.141726,7.28227468 127.144663,7.28227468 C127.825595,7.28227468 128.448772,7.12196639 129.014457,6.80187198 C129.580933,6.48177757 130.027152,6.03766615 130.355751,5.46875446 C130.682767,4.90036495 130.847066,4.28967911 130.847066,3.63565259 C130.847066,2.98658676 130.684349,2.38268922 130.358124,1.82239345 C130.032691,1.26209769 129.579351,0.81876953 128.999425,0.492408994 C128.417916,0.165787369 127.797641,0.00234601197 127.137279,0.00234601197 C126.22559,0.00234601197 125.418071,0.316435392 124.714458,0.943830888 L124.714458,0.943830888 Z" id="Fill-1" fill="#767D81"></path>
                    <path d="M96.1158432,8.23133113 C95.635077,7.52325931 94.9472875,7.16896231 94.0519497,7.16896231 C93.1574017,7.16896231 92.4814804,7.51908189 92.0252403,8.2185378 C91.5692641,8.91877697 91.3414075,9.82814794 91.3414075,10.947434 C91.3414075,12.0348674 91.5734837,12.9356225 92.0378992,13.6520491 C92.501524,14.3684757 93.1732256,14.7261669 94.0519497,14.7261669 C94.9807806,14.7261669 95.676217,14.3768306 96.1406333,13.6765914 C96.6047849,12.9771355 96.8376518,12.0675034 96.8376518,10.947434 C96.8376518,9.84459657 96.5966095,8.9391419 96.1158432,8.23133113 Z M99.3240293,13.5570129 C99.0418462,14.3201744 98.6433616,14.9689791 98.1301568,15.5018606 C97.6158974,16.0352643 97.0111819,16.4417789 96.3146902,16.7203603 C95.6184624,16.999725 94.8639514,17.1388851 94.0519497,17.1388851 C93.2399471,17.1388851 92.4896558,16.999725 91.8018671,16.7203603 C91.1138147,16.4417789 90.5207027,16.0352643 90.0235856,15.5018606 C89.5269954,14.9689791 89.1369492,14.3201744 88.8555576,13.5570129 C88.5731106,12.7938514 88.4328098,11.9286044 88.4328098,10.9602274 C88.4328098,9.99185044 88.5731106,9.1260812 88.8555576,8.36265861 C89.1369492,7.59949713 89.5304235,6.95147565 90.0365075,6.41833307 C90.5418008,5.8851905 91.138077,5.47449841 91.826921,5.18756222 C92.5147096,4.90036495 93.2644733,4.75624413 94.0772665,4.75624413 C94.8892691,4.75624413 95.6435154,4.90036495 96.3397432,5.18756222 C97.0359711,5.47449841 97.6364678,5.8851905 98.1420241,6.41833307 C98.648108,6.95147565 99.0418462,7.59949713 99.3240293,8.36265861 C99.6051579,9.1260812 99.7465133,9.99185044 99.7465133,10.9602274 C99.7465133,11.9286044 99.6051579,12.7938514 99.3240293,13.5570129 L99.3240293,13.5570129 Z" id="Fill-2" fill="#3296C4"></path>
                    <polyline id="Fill-3" fill="#3296C4" points="88.0533134 14.7005802 88.4634015 17.13288 78.3034853 17.13288 78.3034853 14.8018825 84.4450593 7.32770407 78.9683302 7.32770407 78.5582414 4.89514318 88.1556378 4.89514318 88.1556378 7.22587958 81.987955 14.7005802 88.0533134 14.7005802"></polyline>
                    <path d="M108.119445,17.1391462 L108.119445,9.07020827 C108.119445,8.54463724 107.999451,8.12193508 107.759199,7.80210175 C107.518685,7.48200734 107.125474,7.32222122 106.577986,7.32222122 C106.097219,7.32222122 105.628848,7.4579872 105.173135,7.72821373 C104.716367,7.99896243 104.27384,8.36448622 103.842654,8.82400191 L103.842654,17.1391462 L100.895817,17.1378407 L100.821975,4.7413621 L103.395116,4.7413621 L103.66807,6.63294777 C104.231909,6.10816002 104.837416,5.65647704 105.483801,5.27894317 C106.130449,4.90167039 106.859378,4.71264236 107.671907,4.71264236 C108.798795,4.71264236 109.652993,5.02908155 110.233709,5.66065445 C110.813108,6.29248845 111.103994,7.16661252 111.103994,8.28224338 L111.102412,17.1378407 L108.119445,17.1391462" id="Fill-4" fill="#3296C4"></path>
                    <path d="M115.059835,9.52711298 C115.185103,8.27989358 115.991831,6.55905974 117.90593,6.55905974 C119.97167,6.55905974 120.47538,8.40469384 120.450854,9.52711298 L115.059835,9.52711298 Z M123.27216,11.6716933 C123.322794,11.3972894 123.373165,10.9490006 123.373165,10.3748671 C123.373165,7.7062823 122.062727,4.46382509 118.081833,4.46382509 C114.152101,4.46382509 112.086362,7.63134992 112.086362,10.9986074 C112.086362,14.714679 114.429274,17.1341855 118.409377,17.1341855 C120.173418,17.1341855 121.634177,16.8096526 122.693288,16.3608416 L122.239685,14.265868 C121.281845,14.5901398 120.274423,14.8146759 118.837926,14.8146759 C116.872928,14.8146759 115.134468,13.8669249 115.059835,11.6716933 L123.27216,11.6716933 L123.27216,11.6716933 Z" id="Fill-5" fill="#3296C4"></path>
                    <path d="M33.8213797,11.2461192 C33.2694081,11.4267924 32.8369029,11.6273083 32.5241279,11.8489724 C32.2105616,12.0703754 31.9921992,12.3131876 31.8690406,12.5755815 C31.7453547,12.8379754 31.6833799,13.108463 31.6833799,13.3875665 C31.6833799,13.8147072 31.810758,14.1504669 32.0668326,14.3966733 C32.3215888,14.6426186 32.6805154,14.7658699 33.14203,14.7658699 C33.6525972,14.7658699 34.123606,14.7700298 34.6128115,14.5961449 C35.0909407,14.425393 35.5147431,14.3058145 35.9266779,13.8959057 L35.9356445,10.8275945 C35.0780183,10.9257638 34.3733513,11.065185 33.8213797,11.2461192 Z M38.8835367,17.1378407 L36.3823907,17.1378407 L36.3074935,16.3788566 C35.4163745,17.4252991 32.6156396,17.1005051 32.1061274,17.0488096 C31.0836745,16.9462018 30.2540029,16.7151386 29.6321449,16.1326503 C29.0105505,15.550162 28.6993577,14.74131 28.6993577,13.707922 C28.6993577,12.2638419 29.2961621,11.1925961 30.489771,10.4947068 C31.6833799,9.79786168 33.4985831,9.33416863 35.9356445,9.10414978 L35.9356445,8.75951301 C35.9356445,8.1193242 35.757368,7.66372488 35.4013423,7.39297618 C35.0458441,7.12248857 34.5365956,6.98698368 33.8754428,6.98698368 C33.1797424,6.98698368 32.5009202,7.07758136 31.83924,7.25773238 C31.1770323,7.43866665 30.5232638,7.66842448 29.8779344,7.94726691 L29.5047668,5.58363337 C30.2004672,5.3053131 30.9293967,5.07529419 31.6912916,4.89435992 C32.452659,4.7142089 33.314241,4.62361121 34.2744553,4.62361121 C35.8306829,4.62361121 36.9939637,4.93169556 37.7642976,5.54708098 C38.5346316,6.16246642 38.9191392,7.18384435 38.9191392,8.61173697 L38.8835367,17.1378407 Z" id="Fill-7" fill="#33373B"></path>
                    <path d="M45.7160641,17.0890172 C45.4038164,17.1315746 45.0222097,17.1532449 44.5715076,17.1532449 C43.9475397,17.1532449 43.3834369,17.0926724 42.8813089,16.9730939 C42.3778623,16.8529933 41.9445659,16.6469945 41.5801011,16.3553587 C41.2164276,16.0634619 40.9342443,15.6773121 40.7353974,15.1963872 C40.5357594,14.7162456 40.4355447,14.1233137 40.4355447,13.4196804 C40.4355447,13.4196804 40.5191448,7.49166761 40.4355447,6.98254517 C40.3653945,6.55383797 40.0655418,6.05176492 39.7424815,5.66770384 C39.3479524,5.19852794 38.3771892,4.51003775 38.3771892,4.51003775 L40.4355447,4.51003775 L40.4421378,0.000518392969 L43.5105512,0.000518392969 L43.5052768,4.51003775 L46.4711021,4.51003775 L46.4700472,7.03371851 L43.5052768,7.03371851 L43.5052768,12.9045529 C43.5052768,13.4027097 43.6308088,13.7846821 43.8824002,14.0507311 C44.1337279,14.3167802 44.562541,14.4494132 45.1696307,14.4494132 C45.5686431,14.4494132 45.8980327,14.4152106 46.1580633,14.3465443 L46.5481091,16.9472462 C46.3049568,16.9989417 46.0277843,17.0456765 45.7160641,17.0890172" id="Fill-9" fill="#33373B"></path>
                    <path d="M19.9751475,9.53625111 C20.1006795,8.28903167 20.9071435,6.56819783 22.8220339,6.56819783 C24.8877737,6.56819783 25.3912203,8.41383194 25.3664304,9.53625111 L19.9751475,9.53625111 Z M28.1877357,11.6816148 C28.2381067,11.4072108 28.2884778,10.9581387 28.2884778,10.3845274 C28.2884778,7.71542039 26.9783034,4.47322428 22.9979369,4.47322428 C19.0676777,4.47322428 17.0019379,7.64048801 17.0019379,11.0077455 C17.0019379,14.7240782 19.3448502,17.1438458 23.3252168,17.1438458 C25.0889941,17.1438458 26.5500178,16.819835 27.608337,16.3705018 L27.1549976,14.2755283 C26.1976843,14.6000612 25.1897362,14.8238139 23.7535024,14.8238139 C21.7885046,14.8238139 20.0500447,13.876324 19.9751475,11.6816148 L28.1877357,11.6816148 L28.1877357,11.6816148 Z" id="Fill-10" fill="#33373B"></path>
                    <path d="M61.3176345,9.53938419 C61.4439576,8.29242582 62.2498942,6.57133089 64.1647846,6.57133089 C66.2302608,6.57133089 66.7344985,8.41722609 66.7094449,9.53938419 L61.3176345,9.53938419 Z M69.5302227,11.6850089 C69.5816486,11.4103438 69.6320196,10.9612718 69.6320196,10.3876605 C69.6320196,7.71881454 68.322109,4.47635734 64.3414788,4.47635734 C60.410956,4.47635734 58.3446887,7.64388216 58.3446887,11.0108785 C58.3446887,14.7272112 60.687601,17.1469788 64.6687587,17.1469788 C66.4314811,17.1469788 67.8930322,16.822968 68.9516152,16.3736349 L68.4974847,14.2786614 C67.540435,14.6029331 66.5327507,14.826947 65.0973081,14.826947 C63.1317829,14.826947 61.3935866,13.8794571 61.3176345,11.6850089 L69.5302227,11.6850089 L69.5302227,11.6850089 Z" id="Fill-11" fill="#33373B"></path>
                    <path d="M75.3173533,8.41095997 C74.5876327,8.85402704 74.0079702,9.39578548 73.5773111,10.0357133 L73.5773111,17.1446291 L70.5566314,17.1446291 L70.5927614,4.71107584 L73.1289825,4.71107584 L73.5021501,7.35224639 C73.9003713,6.66323403 74.3247011,5.98127105 75.016182,5.58258901 C75.6375127,5.22437568 76.4133849,4.99748985 77.3585669,4.94814413 L77.8237738,7.33475347 C76.8814926,7.46529768 76.0468103,7.9678929 75.3173533,8.41095997" id="Fill-12" fill="#33373B"></path>
                    <path d="M54.5916511,17.1540282 L54.6153862,8.98613774 C54.6153862,8.4605668 54.4953924,8.03786461 54.255141,7.71777019 C54.0143621,7.39793686 53.6208879,7.23815075 53.0736633,7.23815075 C52.5928968,7.23815075 52.1245253,7.37365564 51.6690763,7.64414325 C51.212836,7.91489196 50.7695182,8.28041575 50.338859,8.73993138 L50.3391228,17.1378407 L47.3722425,17.1378407 L47.3856924,0.00887322273 L50.3222445,0.00887322273 L50.338859,6.37655893 C50.8365037,5.91730438 51.3990243,5.51131187 52.0293215,5.15832032 C52.659355,4.80506767 53.3721974,4.62857189 54.1678488,4.62857189 C55.295527,4.62857189 56.1486699,4.94501107 56.7291234,5.57658398 C57.3090497,6.20841798 57.5996721,7.08254204 57.5996721,8.1981729 L57.6023093,17.1488065" id="Fill-13" fill="#33373B"></path>
                    <polyline id="Fill-15" fill="#33373B" points="13.4836135 17.1302692 10.9980272 17.1287026 8.69862914 8.92530418 6.27739111 17.1287026 3.7999802 17.1287026 -1.08082353e-14 4.69984904 3.20291204 4.70402645 5.3414393 12.6672236 7.49341642 4.65911924 10.1657184 4.65911924 12.3285081 12.6672236 14.4907705 4.65911924 17.4471018 4.65911924"></polyline>
                </g>
                <path d="M137.298123,17.1827115 C138.84306,17.1827115 140.093723,16.5392535 140.829407,15.6336461 L140.902975,15.6336461 L141.099158,16.9205621 L143.821189,16.9205621 C143.698575,16.2056087 143.64953,15.1808422 143.64953,14.1322441 L143.64953,9.93785122 C143.64953,7.4116828 142.546004,5.05233683 138.720446,5.05233683 C136.832189,5.05233683 135.287253,5.55280415 134.404432,6.07710326 L134.992979,7.98364546 C135.802232,7.48317813 137.028372,7.12570147 138.205467,7.12570147 C140.314428,7.12570147 140.633225,8.38878567 140.633225,9.15140252 L140.633225,9.34205677 C136.219119,9.318225 133.546133,10.7957952 133.546133,13.7271039 C133.546133,15.4906554 134.894888,17.1827115 137.298123,17.1827115 Z M138.254512,15.0855152 C137.298123,15.0855152 136.537916,14.561216 136.537916,13.4172908 C136.537916,11.6537392 138.573309,11.2009354 140.706793,11.248599 L140.706793,12.8453281 C140.706793,13.0359822 140.68227,13.2743 140.608702,13.4887861 C140.338951,14.3228982 139.45613,15.0855152 138.254512,15.0855152 Z M150.078733,17.1827115 C151.819853,17.1827115 153.266698,16.3724311 153.97786,15.0855152 L154.026905,15.0855152 L154.149519,16.9205621 L156.847028,16.9205621 C156.797982,16.1341133 156.748937,14.8471974 156.748937,13.6556085 L156.748937,3.90549191e-14 L153.732632,3.90549191e-14 L153.732632,6.57757058 L153.683586,6.57757058 C153.144084,5.7196266 151.966989,5.05233683 150.323961,5.05233683 C147.454793,5.05233683 144.953467,7.36401925 144.977989,11.248599 C144.977989,14.8233656 147.234088,17.1827115 150.078733,17.1827115 Z M151.035123,14.8233656 C149.122344,14.8233656 148.04334,13.2743 148.04334,11.1532719 C148.04334,8.98458012 149.122344,7.31635569 151.059646,7.31635569 C152.432923,7.31635569 153.389312,8.24579501 153.659063,9.38972032 C153.708109,9.62803811 153.732632,9.91401945 153.732632,10.1523372 L153.732632,11.892057 C153.732632,12.2018701 153.708109,12.4878514 153.63454,12.750001 C153.340267,14.0130852 152.261263,14.8233656 151.035123,14.8233656 Z M164.943782,16.9205621 L169.505025,5.31448638 L166.31706,5.31448638 L164.428804,11.2009354 C164.110007,12.2495336 163.840256,13.1551412 163.619551,14.1084123 L163.545982,14.1084123 C163.325277,13.1551412 163.080049,12.2257019 162.73673,11.2009354 L160.799428,5.31448638 L157.537895,5.31448638 L161.976523,16.9205621 L164.943782,16.9205621 Z M175.321158,17.1588798 C177.037754,17.1588798 178.460077,16.8490667 179.490035,16.4439265 L179.048625,14.4182254 C178.141281,14.7518703 177.135846,14.9425244 175.738046,14.9425244 C173.825267,14.9425244 172.133193,14.036917 172.059625,11.9397205 L180.05406,11.9397205 C180.103105,11.6775709 180.152151,11.248599 180.152151,10.7004681 C180.152151,8.1504679 178.876965,5.05233683 175.002361,5.05233683 C171.176804,5.05233683 169.165933,8.07897257 169.165933,11.2962625 C169.165933,14.8471974 171.446554,17.1588798 175.321158,17.1588798 Z M177.307505,9.89018768 L172.059625,9.89018768 C172.182239,8.69859878 172.966968,7.05420614 174.830702,7.05420614 C176.841572,7.05420614 177.332028,8.81775764 177.307505,9.89018768 Z M184.496916,16.9205621 L184.496916,10.9149541 C184.496916,10.5813092 184.545961,10.2714961 184.595007,10.0093465 C184.864758,8.69859878 185.84567,7.79299124 187.292516,7.79299124 C187.660358,7.79299124 187.930109,7.84065479 188.175337,7.88831835 L188.175337,5.12383216 C187.930109,5.07616861 187.758449,5.05233683 187.464175,5.05233683 C186.188989,5.05233683 184.791189,5.88644904 184.202642,7.53084169 L184.104551,7.53084169 L184.00646,5.31448638 L181.382519,5.31448638 C181.456088,6.36308459 181.480611,7.48317813 181.480611,9.05607543 L181.480611,16.9205621 L184.496916,16.9205621 Z M193.721719,17.1588798 C194.678109,17.1588798 195.462839,17.0397209 195.904249,16.8728984 L195.855204,14.6327113 C195.585453,14.7042067 195.193088,14.7757021 194.678109,14.7757021 C193.525537,14.7757021 193.133172,14.036917 193.133172,12.630842 L193.133172,7.50700991 L196.00234,7.50700991 L196.00234,5.31448638 L193.133172,5.31448638 L193.133172,2.00186931 L190.190435,2.69299086 L190.190435,5.31448638 L188.473839,5.31448638 L188.473839,7.50700991 L190.190435,7.50700991 L190.190435,12.9644869 C190.190435,14.4897207 190.484709,15.5383189 191.122302,16.2056087 C191.686326,16.8014031 192.618193,17.1588798 193.721719,17.1588798 Z M198.679554,3.64626195 C199.734035,3.64626195 200.396151,2.95514041 200.396151,2.07336464 C200.371628,1.16775709 199.734035,0.47663555 198.704077,0.47663555 C197.698642,0.47663555 197.012004,1.16775709 197.012004,2.07336464 C197.012004,2.95514041 197.674119,3.64626195 198.679554,3.64626195 Z M200.224491,16.9205621 L200.224491,5.31448638 L197.183663,5.31448638 L197.183663,16.9205621 L200.224491,16.9205621 Z M205.255895,17.1588798 C208.419337,17.1588798 210.111411,15.6336461 210.111411,13.5364496 C210.086888,11.8205617 209.081453,10.7481316 206.923446,9.98551477 C205.403032,9.46121563 204.839007,9.10373898 204.839007,8.3649539 C204.839007,7.65000058 205.427554,7.14953325 206.506558,7.14953325 C207.561039,7.14953325 208.517428,7.53084169 209.032407,7.81682302 L209.620954,5.74345837 C208.934316,5.38598171 207.781744,5.05233683 206.457512,5.05233683 C203.686435,5.05233683 201.945316,6.64906591 201.945316,8.69859878 C201.920793,10.0570101 202.901705,11.2962625 205.231372,12.0827112 C206.70274,12.5831785 207.193196,12.9883187 207.193196,13.7747674 C207.193196,14.5373843 206.604649,15.0616834 205.280418,15.0616834 C204.201414,15.0616834 202.901705,14.6327113 202.215067,14.2275711 L201.626519,16.3485994 C202.50934,16.8252349 203.809049,17.1588798 205.255895,17.1588798 Z M212.984807,3.64626195 C214.039288,3.64626195 214.701404,2.95514041 214.701404,2.07336464 C214.676881,1.16775709 214.039288,0.47663555 213.00933,0.47663555 C212.003895,0.47663555 211.317256,1.16775709 211.317256,2.07336464 C211.317256,2.95514041 211.979372,3.64626195 212.984807,3.64626195 Z M214.529744,16.9205621 L214.529744,5.31448638 L211.488916,5.31448638 L211.488916,16.9205621 L214.529744,16.9205621 Z M219.708284,16.9205621 L219.708284,10.1046736 C219.708284,9.77102874 219.732807,9.41355209 219.830898,9.15140252 C220.149695,8.26962679 220.98347,7.43551458 222.185088,7.43551458 C223.828116,7.43551458 224.465709,8.69859878 224.465709,10.3668232 L224.465709,16.9205621 L227.482014,16.9205621 L227.482014,10.0331783 C227.482014,6.36308459 225.324007,5.05233683 223.239568,5.05233683 C221.253221,5.05233683 219.953512,6.14859859 219.438533,7.05420614 L219.364965,7.05420614 L219.217828,5.31448638 L216.569365,5.31448638 C216.642933,6.31542103 216.667456,7.43551458 216.667456,8.7700941 L216.667456,16.9205621 L219.708284,16.9205621 Z M234.033832,21.9014035 C235.67686,21.9014035 237.393456,21.5677586 238.644119,20.4953287 C239.894782,19.3990669 240.409761,17.6593471 240.409761,15.2285058 L240.409761,8.65093524 C240.409761,7.05420614 240.458807,6.10093503 240.507853,5.31448638 L237.883912,5.31448638 L237.761298,6.86355191 L237.712253,6.86355191 C237.148228,5.91028082 236.069225,5.05233683 234.254537,5.05233683 C231.385368,5.05233683 228.834996,7.36401925 228.834996,11.1771037 C228.834996,14.4658889 230.943958,16.8490667 233.911218,16.8490667 C235.480677,16.8490667 236.706818,16.1579451 237.393456,15.1331787 L237.442502,15.1331787 L237.442502,16.1341133 C237.442502,18.63645 235.971133,19.6373847 234.009309,19.6373847 C232.562463,19.6373847 231.287277,19.1845809 230.52707,18.7556089 L229.864954,20.9719642 C230.894912,21.5915904 232.513418,21.9014035 234.033832,21.9014035 Z M234.818561,14.6565432 C232.930305,14.6565432 231.900347,13.0598141 231.900347,11.0817765 C231.900347,8.72243055 233.151011,7.29252391 234.843084,7.29252391 C236.11827,7.29252391 236.976568,8.10280435 237.295365,9.17523429 C237.368933,9.41355209 237.393456,9.69953343 237.393456,9.96168299 L237.393456,11.8443934 C237.393456,12.1780383 237.344411,12.5831785 237.270842,12.8929916 C236.927523,13.9415898 235.946611,14.6565432 234.818561,14.6565432 Z" id="advertising" fill="#33373B"></path>
            </g>
        </g>
    </g>
</svg>