<?xml version="1.0" encoding="UTF-8"?>
<svg width="181px" height="24px" viewBox="0 0 181 24" version="1.1" xmlns="http://www.w3.org/2000/svg" xmlns:xlink="http://www.w3.org/1999/xlink">
    <title>Logo / Weatherzone / White</title>
    <g id="Page-1" stroke="none" stroke-width="1" fill="none" fill-rule="evenodd">
        <g id="Advertising---Home-Copy-4" transform="translate(-324.000000, -2445.000000)" fill="#FFFFFF">
            <g id="Group" transform="translate(324.555556, 2445.000000)">
                <g id="Group" transform="translate(0.000000, 0.348162)">
                    <path d="M176.527485,3.01401137 C177.019678,3.52351858 177.265231,4.18648749 177.265231,5.00184243 C177.265231,5.81755593 177.014608,6.48482751 176.514447,7.00329859 C176.012837,7.52212824 175.384829,7.78064667 174.631509,7.78064667 C173.877103,7.78064667 173.252354,7.52463812 172.759799,7.01226248 C172.26833,6.49952828 172.022777,5.82902971 172.022777,5.00184243 C172.022777,4.19796126 172.271227,3.53821935 172.76994,3.02297526 C173.267928,2.5066555 173.890141,2.24957129 174.639477,2.24957129 C175.406197,2.24957129 176.035292,2.50450417 176.527485,3.01401137 Z M171.27163,1.29617252 C170.171348,2.28757816 169.621569,3.52531135 169.621569,5.01116487 C169.621569,6.39733999 170.108692,7.57555299 171.082575,8.54616242 C172.055372,9.51605474 173.23171,10.0008216 174.609054,10.0008216 C175.544185,10.0008216 176.4,9.78066861 177.176861,9.34107971 C177.954809,8.90149081 178.567606,8.29158809 179.018873,7.51029591 C179.467968,6.72972083 179.693602,5.89105979 179.693602,4.99287855 C179.693602,4.10150986 179.470141,3.27217125 179.022133,2.50271139 C178.575211,1.73325154 177.952636,1.12442449 177.156217,0.676230261 C176.357626,0.227677473 175.505795,0.00322180202 174.598913,0.00322180202 C173.346881,0.00322180202 172.237907,0.434563931 171.27163,1.29617252 L171.27163,1.29617252 Z" id="Fill-1"></path>
                    <path d="M131.996861,11.3041704 C131.33662,10.3317682 130.392072,9.84520858 129.162495,9.84520858 C127.934004,9.84520858 127.005755,10.3260314 126.379195,11.2866012 C125.752998,12.2482468 125.44008,13.4970952 125.44008,15.0342221 C125.44008,16.5276053 125.758793,17.7646214 126.396579,18.7484974 C127.03328,19.7323733 127.955734,20.2235942 129.162495,20.2235942 C130.438068,20.2235942 131.393119,19.7438471 132.030905,18.7822016 C132.66833,17.8216317 132.988129,16.5724247 132.988129,15.0342221 C132.988129,13.5196842 132.657103,12.2762141 131.996861,11.3041704 Z M136.402696,18.6179832 C136.015171,19.6660406 135.467928,20.5570507 134.763139,21.2888623 C134.056901,22.0213909 133.226439,22.5796617 132.26994,22.9622402 C131.313803,23.3458945 130.277626,23.5370045 129.162495,23.5370045 C128.047364,23.5370045 127.016982,23.3458945 126.072435,22.9622402 C125.127525,22.5796617 124.312998,22.0213909 123.630302,21.2888623 C122.94833,20.5570507 122.412676,19.6660406 122.026237,18.6179832 C121.63835,17.5699258 121.445674,16.3816733 121.445674,15.0517913 C121.445674,13.7219094 121.63835,12.5329397 122.026237,11.4845238 C122.412676,10.4364664 122.953038,9.54653194 123.648048,8.81436185 C124.341972,8.08219175 125.160845,7.51818413 126.106841,7.12413176 C127.051388,6.72972083 128.081046,6.53179826 129.197264,6.53179826 C130.312394,6.53179826 131.348209,6.72972083 132.304346,7.12413176 C133.260483,7.51818413 134.085151,8.08219175 134.779437,8.81436185 C135.474447,9.54653194 136.015171,10.4364664 136.402696,11.4845238 C136.788773,12.5329397 136.982897,13.7219094 136.982897,15.0517913 C136.982897,16.3816733 136.788773,17.5699258 136.402696,18.6179832 L136.402696,18.6179832 Z" id="Fill-2"></path>
                    <polyline id="Fill-3" points="120.924507 20.1884558 121.487686 23.5287578 107.53497 23.5287578 107.53497 20.3275753 115.969256 10.0628517 108.448008 10.0628517 107.884829 6.72254973 121.06503 6.72254973 121.06503 9.92337365 112.594889 20.1884558 120.924507 20.1884558"></polyline>
                    <path d="M148.481529,23.5373631 L148.481529,12.4562089 C148.481529,11.7344369 148.31674,11.1539357 147.986801,10.7143468 C147.656499,10.2751165 147.116499,10.0556806 146.364628,10.0556806 C145.704386,10.0556806 145.061167,10.2421294 144.435332,10.6132342 C143.808048,10.9850562 143.200322,11.4870337 142.608169,12.1180912 L142.608169,23.5373631 L138.561247,23.5355703 L138.459839,6.51136061 L141.993561,6.51136061 L142.36841,9.10909437 C143.142736,8.38839805 143.974286,7.76809723 144.861972,7.24962614 C145.75002,6.73151361 146.751066,6.47191951 147.866922,6.47191951 C149.414487,6.47191951 150.587565,6.90648864 151.38507,7.77383412 C152.180765,8.64153815 152.580241,9.84198158 152.580241,11.3740887 L152.578068,23.5355703 L148.481529,23.5373631" id="Fill-4"></path>
                    <path d="M158.012837,13.0836808 C158.184869,11.3708617 159.292757,9.0076232 161.921408,9.0076232 C164.75831,9.0076232 165.45006,11.5422512 165.416378,13.0836808 L158.012837,13.0836808 Z M169.290905,16.0288548 C169.360443,15.652013 169.429618,15.0363735 169.429618,14.2479102 C169.429618,10.5831156 167.62998,6.13021623 162.162978,6.13021623 C156.766237,6.13021623 153.929336,10.4802102 153.929336,15.104499 C153.929336,20.2081763 157.146881,23.5305505 162.612797,23.5305505 C165.035372,23.5305505 167.041449,23.0848662 168.495936,22.4685095 L167.872998,19.5914611 C166.557586,20.0367869 165.174085,20.3451445 163.201328,20.3451445 C160.502777,20.3451445 158.115332,19.0435884 158.012837,16.0288548 L169.290905,16.0288548 L169.290905,16.0288548 Z" id="Fill-5"></path>
                    <path d="M46.4472435,15.4444095 C45.6892153,15.6925298 45.0952515,15.9679003 44.6657143,16.2723139 C44.2350905,16.5763688 43.9352113,16.9098253 43.7660765,17.2701735 C43.5962173,17.6305217 43.5111066,18.001985 43.5111066,18.3852808 C43.5111066,18.9718774 43.6860362,19.4329796 44.0377062,19.7710973 C44.3875654,20.1088565 44.8804829,20.2781067 45.5142857,20.2781067 C46.2154527,20.2781067 46.8622938,20.2838315 47.5341247,20.0450336 C48.1907445,19.8105384 48.7727565,19.64632 49.3384708,19.0833881 L49.3507847,14.8696452 C48.172998,15.004462 47.2052716,15.1962892 46.4472435,15.4444095 Z M53.3991549,23.5355703 L49.9643058,23.5355703 L49.8614487,22.4932498 C48.637666,23.9303398 44.7913883,23.4842969 44.09167,23.4133029 C42.6875252,23.2723907 41.5481288,22.9550691 40.6941247,22.1551321 C39.8404829,21.355195 39.4131187,20.2443904 39.4131187,18.8252282 C39.4131187,16.8420584 40.2327163,15.3709056 41.8719115,14.4124871 C43.5111066,13.4555028 46.0039437,12.8187084 49.3507847,12.5028211 L49.3507847,12.029528 C49.3507847,11.1503502 49.1059557,10.524671 48.6170221,10.1524905 C48.1288129,9.78138572 47.4294567,9.59529548 46.5214889,9.59529548 C45.5660765,9.59529548 44.6338431,9.71971419 43.7251509,9.96711741 C42.8157344,10.2155963 41.9179074,10.531125 41.03167,10.9140622 L40.5191952,7.66806028 C41.4746076,7.28584024 42.4756539,6.96995294 43.5219718,6.72147406 C44.5675654,6.47407085 45.7507847,6.34965213 47.0694567,6.34965213 C49.2066398,6.34965213 50.8041851,6.77274748 51.8620926,7.61786252 C52.92,8.46297757 53.4480483,9.86564624 53.4480483,11.8265856 L53.3991549,23.5355703 Z" id="Fill-7"></path>
                    <path d="M62.782334,23.4685205 C62.3535211,23.526965 61.8294567,23.5567251 61.210503,23.5567251 C60.3536016,23.5567251 59.5789135,23.4735402 58.889336,23.3093219 C58.1979477,23.1443864 57.6028974,22.8614862 57.1023742,22.4609798 C56.6029376,22.0601149 56.2154125,21.5298115 55.942334,20.8693525 C55.668169,20.2096106 55.5305433,19.3956898 55.5305433,18.4293831 C55.5305433,18.4293831 55.6453521,10.288383 55.5305433,9.58920003 C55.4342052,9.00045209 55.0224145,8.31095009 54.5787525,7.78351511 C54.0369416,7.13919109 52.7037827,6.19368053 52.7037827,6.19368053 L55.5305433,6.19368053 L55.5395976,0.000711914316 L59.7534809,0.000711914316 L59.7462374,6.19368053 L63.8192354,6.19368053 L63.8177867,9.65947689 L59.7462374,9.65947689 L59.7462374,17.7219533 C59.7462374,18.406077 59.9186318,18.9306435 60.2641449,19.2960114 C60.6092958,19.6613794 61.1981891,19.8435255 62.0319115,19.8435255 C62.5798793,19.8435255 63.0322334,19.7965548 63.389336,19.7022547 L63.9249899,23.2738249 C63.5910664,23.3448188 63.2104225,23.4090003 62.782334,23.4685205" id="Fill-9"></path>
                    <path d="M27.4320724,13.0962303 C27.6044668,11.3834112 28.711992,9.02017264 31.3417304,9.02017264 C34.1786318,9.02017264 34.8700201,11.5548007 34.8359759,13.0962303 L27.4320724,13.0962303 Z M38.710503,16.0424799 C38.7796781,15.6656382 38.8488531,15.0489229 38.8488531,14.2611767 C38.8488531,10.595665 37.0495775,6.14312422 31.5832998,6.14312422 C26.185835,6.14312422 23.3489336,10.4927596 23.3489336,15.1170484 C23.3489336,20.2207258 26.5664789,23.5438171 32.0327565,23.5438171 C34.4549698,23.5438171 36.4614085,23.0988499 37.9148089,22.481776 L37.2922334,19.6047276 C35.9775453,20.050412 34.5933199,20.3576939 32.6209256,20.3576939 C29.9223742,20.3576939 27.5349296,19.0564964 27.4320724,16.0424799 L38.710503,16.0424799 L38.710503,16.0424799 Z" id="Fill-10"></path>
                    <path d="M84.2081288,13.1005329 C84.3816097,11.3877138 85.4884105,9.0244753 88.1181489,9.0244753 C90.9546881,9.0244753 91.647163,11.5591033 91.6127565,13.1005329 L84.2081288,13.1005329 Z M95.4865594,16.0471411 C95.5571831,15.6699408 95.6263581,15.0532256 95.6263581,14.2654794 C95.6263581,10.6003262 93.8274447,6.14742689 88.3608048,6.14742689 C82.9629779,6.14742689 80.1253521,10.4974208 80.1253521,15.1213511 C80.1253521,20.2250284 83.3428974,23.5481197 88.8102616,23.5481197 C91.2310262,23.5481197 93.2381891,23.1031525 94.6919517,22.4860787 L94.0682897,19.6090303 C92.7539638,20.0543561 91.3701006,20.3619966 89.3987928,20.3619966 C86.6995171,20.3619966 84.3124346,19.0607991 84.2081288,16.0471411 L95.4865594,16.0471411 L95.4865594,16.0471411 Z" id="Fill-11"></path>
                    <path d="M103.434085,11.5508565 C102.431952,12.159325 101.635895,12.9033275 101.044467,13.7821467 L101.044467,23.5448928 L96.8961368,23.5448928 L96.9457545,6.46976818 L100.428773,6.46976818 L100.941247,10.0969145 C101.488129,9.1506868 102.070865,8.21414013 103.020483,7.66662606 C103.873763,7.17468807 104.939276,6.86310344 106.237304,6.79533647 L106.876177,10.0728912 C105.582133,10.2518104 104.435855,10.9423881 103.434085,11.5508565" id="Fill-12"></path>
                    <path d="M74.9712676,23.5578007 L75.0038632,12.3407541 C75.0038632,11.6189821 74.8390744,11.0384809 74.5091348,10.598892 C74.1784708,10.1596617 73.6381087,9.94022576 72.8865996,9.94022576 C72.2263581,9.94022576 71.5831388,10.126316 70.957666,10.4977794 C70.3311066,10.8696013 69.7222938,11.3715789 69.1308652,12.0026363 L69.1312274,23.5355703 L65.0567807,23.5355703 L65.0752515,0.0121856867 L69.1080483,0.0121856867 L69.1308652,8.75699298 C69.8142857,8.12629406 70.5868008,7.56874044 71.4523944,7.08397356 C72.3176258,6.59884812 73.2965795,6.35646468 74.3892555,6.35646468 C75.9379074,6.35646468 77.1095372,6.79103381 77.9066801,7.65837928 C78.7030986,8.52572476 79.1022133,9.72652675 79.1022133,11.2586339 L79.105835,23.5506296" id="Fill-13"></path>
                    <polyline id="Fill-15" points="18.5171831 23.5251722 15.1037022 23.5230209 11.9459155 12.2572107 8.62080483 23.5230209 5.21855131 23.5230209 -1.48430591e-14 6.4543503 4.39859155 6.46008718 7.33545272 17.3960264 10.2907847 6.3980571 13.9606841 6.3980571 16.9308652 17.3960264 19.9003219 6.3980571 23.9602817 6.3980571"></polyline>
                </g>
            </g>
        </g>
    </g>
</svg>