<?xml version="1.0" encoding="UTF-8"?>
<svg width="180px" height="24px" viewBox="0 0 180 24" version="1.1" xmlns="http://www.w3.org/2000/svg" xmlns:xlink="http://www.w3.org/1999/xlink">
    <title>Logo / Weatherzone Pro / Grey-Blue</title>
    <g id="Page-1" stroke="none" stroke-width="1" fill="none" fill-rule="evenodd">
        <g id="Artboard-Copy-2" transform="translate(-222.000000, -474.000000)">
            <g id="Group-14" transform="translate(222.000000, 466.000000)">
                <g id="Group-3" transform="translate(0.000000, 8.000000)">
                    <g id="Group" transform="translate(0.000000, 0.343874)">
                        <path d="M176.527485,2.97688225 C177.019678,3.48011291 177.265231,4.13491481 177.265231,4.94022553 C177.265231,5.74589039 177.014608,6.40494195 176.514447,6.91702608 C176.012837,7.42946434 175.384829,7.68479812 174.631509,7.68479812 C173.877103,7.68479812 173.252354,7.43194331 172.759799,6.92587954 C172.26833,6.41946162 172.022777,5.75722282 172.022777,4.94022553 C172.022777,4.14624724 172.271227,3.49463259 172.76994,2.98573571 C173.267928,2.47577641 173.890141,2.22185918 174.639477,2.22185918 C175.406197,2.22185918 176.035292,2.47365158 176.527485,2.97688225 Z M171.27163,1.28020518 C170.171348,2.25939785 169.621569,3.48188361 169.621569,4.94943313 C169.621569,6.31817804 170.108692,7.48223096 171.082575,8.44088361 C172.055372,9.39882797 173.23171,9.87762309 174.609054,9.87762309 C175.544185,9.87762309 176.4,9.66018211 177.176861,9.22600844 C177.954809,8.79183476 178.567606,8.18944534 179.018873,7.41777777 C179.467968,6.64681848 179.693602,5.81848876 179.693602,4.93137207 C179.693602,4.05098401 179.470141,3.2318619 179.022133,2.47188089 C178.575211,1.71189989 177.952636,1.11057289 177.156217,0.667899888 C176.357626,0.224872751 175.505795,0.00318211315 174.598913,0.00318211315 C173.346881,0.00318211315 172.237907,0.429210607 171.27163,1.28020518 L171.27163,1.28020518 Z" id="Fill-1" fill="#FFFFFF"></path>
                        <path d="M131.996861,11.1649162 C131.33662,10.2044928 130.392072,9.72392702 129.162495,9.72392702 C127.934004,9.72392702 127.005755,10.1988266 126.379195,11.1475634 C125.752998,12.0973626 125.44008,13.3308266 125.44008,14.8490179 C125.44008,16.3240044 125.758793,17.5457818 126.396579,18.5175376 C127.03328,19.4892934 127.955734,19.974463 129.162495,19.974463 C130.438068,19.974463 131.393119,19.5006258 132.030905,18.5508266 C132.66833,17.6020898 132.988129,16.3682717 132.988129,14.8490179 C132.988129,13.3531373 132.657103,12.1249854 131.996861,11.1649162 Z M136.402696,18.3886312 C136.015171,19.4237778 135.467928,20.3038117 134.763139,21.0266082 C134.056901,21.7501129 133.226439,22.3015064 132.26994,22.6793721 C131.313803,23.0583002 130.277626,23.2470559 129.162495,23.2470559 C128.047364,23.2470559 127.016982,23.0583002 126.072435,22.6793721 C125.127525,22.3015064 124.312998,21.7501129 123.630302,21.0266082 C122.94833,20.3038117 122.412676,19.4237778 122.026237,18.3886312 C121.63835,17.3534847 121.445674,16.17987 121.445674,14.8663707 C121.445674,13.5528714 121.63835,12.3785485 122.026237,11.3430478 C122.412676,10.3079012 122.953038,9.42892974 123.648048,8.70577913 C124.341972,7.98262852 125.160845,7.42556882 126.106841,7.03637072 C127.051388,6.64681848 128.081046,6.45133408 129.197264,6.45133408 C130.312394,6.45133408 131.348209,6.64681848 132.304346,7.03637072 C133.260483,7.42556882 134.085151,7.98262852 134.779437,8.70577913 C135.474447,9.42892974 136.015171,10.3079012 136.402696,11.3430478 C136.788773,12.3785485 136.982897,13.5528714 136.982897,14.8663707 C136.982897,16.17987 136.788773,17.3534847 136.402696,18.3886312 L136.402696,18.3886312 Z" id="Fill-2" fill="#3296C4"></path>
                        <polyline id="Fill-3" fill="#3296C4" points="120.924507 19.9397574 121.487686 23.2389107 107.53497 23.2389107 107.53497 20.0771631 115.969256 9.93888903 108.448008 9.93888903 107.884829 6.63973571 121.06503 6.63973571 121.06503 9.8011292 112.594889 19.9397574 120.924507 19.9397574"></polyline>
                        <path d="M148.481529,23.2474101 L148.481529,12.3027628 C148.481529,11.5898822 148.31674,11.0165322 147.986801,10.5823585 C147.656499,10.148539 147.116499,9.93180627 146.364628,9.93180627 C145.704386,9.93180627 145.061167,10.1159582 144.435332,10.4824915 C143.808048,10.849733 143.200322,11.3455268 142.608169,11.9688103 L142.608169,23.2474101 L138.561247,23.2456394 L138.459839,6.43114819 L141.993561,6.43114819 L142.36841,8.99688089 C143.142736,8.28506271 143.974286,7.67240328 144.861972,7.16031916 C145.75002,6.64858917 146.751066,6.39219297 147.866922,6.39219297 C149.414487,6.39219297 150.587565,6.82140871 151.38507,7.67806949 C152.180765,8.53508442 152.580241,9.72073978 152.580241,11.2339732 L152.578068,23.2456394 L148.481529,23.2474101" id="Fill-4" fill="#3296C4"></path>
                        <path d="M158.012837,12.922505 C158.184869,11.2307859 159.292757,8.89665973 161.921408,8.89665973 C164.75831,8.89665973 165.45006,11.4000641 165.416378,12.922505 L158.012837,12.922505 Z M169.290905,15.8313979 C169.360443,15.4595525 169.429618,14.8511428 169.429618,14.0723924 C169.429618,10.4527438 167.62998,6.05469907 162.162978,6.05469907 C156.766237,6.05469907 153.929336,10.3511061 153.929336,14.9184291 C153.929336,19.9588809 157.146881,23.2406814 162.612797,23.2406814 C165.035372,23.2406814 167.041449,22.8004874 168.495936,22.1917235 L167.872998,19.350117 C166.557586,19.7899569 165.174085,20.0945159 163.201328,20.0945159 C160.502777,20.0945159 158.115332,18.8089935 158.012837,15.8313979 L169.290905,15.8313979 L169.290905,15.8313979 Z" id="Fill-5" fill="#3296C4"></path>
                        <path d="M46.4472435,15.2541523 C45.6892153,15.499216 45.0952515,15.7711943 44.6657143,16.0718578 C44.2350905,16.3721672 43.9352113,16.7015159 43.7660765,17.057425 C43.5962173,17.4133341 43.5111066,17.7802215 43.5111066,18.1587954 C43.5111066,18.7381658 43.6860362,19.1935878 44.0377062,19.5275403 C44.3875654,19.8611387 44.8804829,20.0283039 45.5142857,20.0283039 C46.2154527,20.0283039 46.8622938,20.0339582 47.5341247,19.7981021 C48.1907445,19.5664955 48.7727565,19.4043002 49.3384708,18.8483029 L49.3507847,14.6864684 C48.172998,14.8196244 47.2052716,15.0087344 46.4472435,15.2541523 Z M53.3991549,23.2456394 L49.9643058,23.2456394 L49.8614487,22.216159 C48.637666,23.6355457 44.7913883,23.1949976 44.09167,23.1248782 C42.6875252,22.9857018 41.5481288,22.6722893 40.6941247,21.8822065 C39.8404829,21.0921238 39.4131187,19.995003 39.4131187,18.5933232 C39.4131187,16.6345837 40.2327163,15.1815539 41.8719115,14.234942 C43.5111066,13.2897466 46.0039437,12.6607968 49.3507847,12.3488008 L49.3507847,11.8813382 C49.3507847,11.0129908 49.1059557,10.3950193 48.6170221,10.0274236 C48.1288129,9.66089039 47.4294567,9.47709256 46.5214889,9.47709256 C45.5660765,9.47709256 44.6338431,9.59997859 43.7251509,9.84433408 C42.8157344,10.089752 41.9179074,10.4013938 41.03167,10.7796136 L40.5191952,7.57359867 C41.4746076,7.19608713 42.4756539,6.8840912 43.5219718,6.63867329 C44.5675654,6.3943178 45.7507847,6.27143177 47.0694567,6.27143177 C49.2066398,6.27143177 50.8041851,6.68931508 51.8620926,7.52401929 C52.92,8.3587235 53.4480483,9.74411291 53.4480483,11.6808958 L53.3991549,23.2456394 Z" id="Fill-7" fill="#FFFFFF"></path>
                        <path d="M62.782334,23.1794155 C62.3535211,23.2371401 61.8294567,23.2665335 61.210503,23.2665335 C60.3536016,23.2665335 59.5789135,23.1843734 58.889336,23.022178 C58.1979477,22.8592744 57.6028974,22.5798592 57.1023742,22.1842866 C56.6029376,21.7883599 56.2154125,21.2645892 55.942334,20.6122662 C55.668169,19.9610057 55.5305433,19.1567574 55.5305433,18.2023544 C55.5305433,18.2023544 55.6453521,10.1616421 55.5305433,9.47107221 C55.4342052,8.88957696 55.0224145,8.20856882 54.5787525,7.68763123 C54.0369416,7.05124453 52.7037827,6.11738157 52.7037827,6.11738157 L55.5305433,6.11738157 L55.5395976,0.000703144357 L59.7534809,0.000703144357 L59.7462374,6.11738157 L63.8192354,6.11738157 L63.8177867,9.54048333 L59.7462374,9.54048333 L59.7462374,17.5036394 C59.7462374,18.1793354 59.9186318,18.6974399 60.2641449,19.0583069 C60.6092958,19.419174 61.1981891,19.5990763 62.0319115,19.5990763 C62.5798793,19.5990763 63.0322334,19.5526841 63.389336,19.4595457 L63.9249899,22.9871183 C63.5910664,23.0572377 63.2104225,23.1206285 62.782334,23.1794155" id="Fill-9" fill="#FFFFFF"></path>
                        <path d="M27.4320724,12.9348999 C27.6044668,11.2431808 28.711992,8.90905457 31.3417304,8.90905457 C34.1786318,8.90905457 34.8700201,11.4124589 34.8359759,12.9348999 L27.4320724,12.9348999 Z M38.710503,15.8448551 C38.7796781,15.4726557 38.8488531,14.8635376 38.8488531,14.0854955 C38.8488531,10.4651387 37.0495775,6.06744806 31.5832998,6.06744806 C26.185835,6.06744806 23.3489336,10.363501 23.3489336,14.9308239 C23.3489336,19.9716299 26.5664789,23.2537846 32.0327565,23.2537846 C34.4549698,23.2537846 36.4614085,22.8142988 37.9148089,22.2048266 L37.2922334,19.3632201 C35.9775453,19.8034141 34.5933199,20.1069107 32.6209256,20.1069107 C29.9223742,20.1069107 27.5349296,18.8217425 27.4320724,15.8448551 L38.710503,15.8448551 L38.710503,15.8448551 Z" id="Fill-10" fill="#FFFFFF"></path>
                        <path d="M84.2081288,12.9391495 C84.3816097,11.2474304 85.4884105,8.91330423 88.1181489,8.91330423 C90.9546881,8.91330423 91.647163,11.4167086 91.6127565,12.9391495 L84.2081288,12.9391495 Z M95.4865594,15.8494589 C95.5571831,15.4769053 95.6263581,14.8677873 95.6263581,14.0897452 C95.6263581,10.4697425 93.8274447,6.07169772 88.3608048,6.07169772 C82.9629779,6.07169772 80.1253521,10.3681048 80.1253521,14.9350736 C80.1253521,19.9758795 83.3428974,23.2580342 88.8102616,23.2580342 C91.2310262,23.2580342 93.2381891,22.8185485 94.6919517,22.2090763 L94.0682897,19.3674698 C92.7539638,19.8073097 91.3701006,20.1111604 89.3987928,20.1111604 C86.6995171,20.1111604 84.3124346,18.8259922 84.2081288,15.8494589 L95.4865594,15.8494589 L95.4865594,15.8494589 Z" id="Fill-11" fill="#FFFFFF"></path>
                        <path d="M103.434085,11.4085634 C102.431952,12.0095363 101.635895,12.7443734 101.044467,13.6123666 L101.044467,23.254847 L96.8961368,23.254847 L96.9457545,6.39006814 L100.428773,6.39006814 L100.941247,9.97253218 C101.488129,9.03796095 102.070865,8.11295145 103.020483,7.57218211 C103.873763,7.08630423 104.939276,6.77855796 106.237304,6.7116258 L106.876177,9.94880491 C105.582133,10.12552 104.435855,10.8075905 103.434085,11.4085634" id="Fill-12" fill="#FFFFFF"></path>
                        <path d="M74.9712676,23.267596 L75.0038632,12.1887303 C75.0038632,11.4758497 74.8390744,10.9024996 74.5091348,10.4683259 C74.1784708,10.0345064 73.6381087,9.8177737 72.8865996,9.8177737 C72.2263581,9.8177737 71.5831388,10.0015715 70.957666,10.3684589 C70.3311066,10.7357004 69.7222938,11.2314942 69.1308652,11.8547778 L69.1312274,23.2456394 L65.0567807,23.2456394 L65.0752515,0.0120355731 L69.1080483,0.0120355731 L69.1308652,8.64911698 C69.8142857,8.02618754 70.5868008,7.47550233 71.4523944,6.99670721 C72.3176258,6.51755796 73.2965795,6.2781604 74.3892555,6.2781604 C75.9379074,6.2781604 77.1095372,6.70737614 77.9066801,7.56403693 C78.7030986,8.42105186 79.1022133,9.60670721 79.1022133,11.1199406 L79.105835,23.2605132" id="Fill-13" fill="#FFFFFF"></path>
                        <polyline id="Fill-15" fill="#FFFFFF" points="18.5171831 23.2353694 15.1037022 23.2332445 11.9459155 12.106216 8.62080483 23.2332445 5.21855131 23.2332445 -1.48430591e-14 6.37484019 4.39859155 6.3805064 7.33545272 17.1817276 10.2907847 6.31924046 13.9606841 6.31924046 16.9308652 17.1817276 19.9003219 6.31924046 23.9602817 6.31924046"></polyline>
                    </g>
                </g>
            </g>
        </g>
    </g>
</svg>